<?xml version="1.0" encoding="UTF-8" standalone="no"?>
<svg
   xmlns:dc="http://purl.org/dc/elements/1.1/"
   xmlns:cc="http://creativecommons.org/ns#"
   xmlns:rdf="http://www.w3.org/1999/02/22-rdf-syntax-ns#"
   xmlns:svg="http://www.w3.org/2000/svg"
   xmlns="http://www.w3.org/2000/svg"
   version="1.1"
   id="svg2"
   viewBox="0 0 1069.5009 281.25043"
   height="79.375122mm"
   width="301.83691mm">
  <defs
     id="defs4" />
  <metadata
     id="metadata7">
    <rdf:RDF>
      <cc:Work
         rdf:about="">
        <dc:format>image/svg+xml</dc:format>
        <dc:type
           rdf:resource="http://purl.org/dc/dcmitype/StillImage" />
        <dc:title></dc:title>
      </cc:Work>
    </rdf:RDF>
  </metadata>
  <g
     transform="translate(63.979502,-362.66595)"
     id="layer1">
    <path
       id="path4216"
       d="m 439.68623,363.53643 c -0.62432,0.008 -1.24831,0.16327 -1.75195,0.45899 -0.72571,0.42611 -1.0586,1.37386 -1.25,2.19336 -0.15736,0.67373 -0.15725,1.43972 0.12305,2.07226 0.29389,0.66322 1.52343,1.55469 1.52343,1.55469 l 0.1211,4.47852 c 0,0 -3.70807,-0.17109 -6.52149,0.64062 -2.01903,0.58252 -4.10718,1.77433 -5.84961,3.13867 -1.67032,1.30788 -3.12292,2.93528 -4.26562,4.72266 -0.93972,1.46989 -2.00964,3.68708 -2.05274,4.81445 -0.13473,3.52428 -0.12109,10.66407 -0.12109,10.66407 l 1.90625,0.12109 0.11524,17.49219 -1.54883,0.0351 0.11718,31.53321 -2.19531,0.12109 -0.24414,19.15625 -2.18945,0.0977 0.39453,61.80664 -52.83203,0.33008 0.0508,-28.79688 -2.75781,0.0195 -0.0527,6.2207 -3.80078,-0.006 -0.002,-8.58399 2.45703,-0.008 -0.0254,-39.02735 -1.2793,0.0293 -1.05273,-1.14258 -0.2461,-8.20703 -1.18945,-0.0293 -0.28906,8.24218 -1.08203,0.99024 -2.61914,-0.0566 -0.004,-15.82422 2.03125,-0.0606 -0.0312,-1.43164 -2.0625,-0.0918 -0.0469,-8.74414 -2.35547,-1.50976 -0.0312,-9.48633 -4.17383,-5.21094 -2.98633,-34.24804 -3.29102,34.37109 -4.29687,4.81445 0.0312,9.96289 -1.95117,1.23438 0,8.57812 -2.10547,0 0.0312,1.61328 2.16601,0 0.0605,16.15039 -3.38086,0 -1.1289,-1.31054 -0.39649,-8.74414 -1.30859,0.0293 -0.53321,8.76172 -1.41796,1.26367 -1.49219,0 -0.0918,39.09375 2.60156,0.006 0.0488,8.86133 -4.37695,-0.0195 -0.0781,-6.45117 -3.00781,-0.0215 0.0293,25.81055 -6.64258,0 -3.10937,10.66406 0.12304,5.85157 -46.58008,0 -5.76953,-5.91211 0.0605,-43.87696 -3.29102,0.18164 0.24414,-19.3789 c 0,0 -0.77499,-3.24036 -1.82812,-4.44922 -1.40521,-1.61299 -3.51504,-2.55328 -5.54492,-3.22852 -1.51346,-0.50347 -4.75391,-0.54882 -4.75391,-0.54882 l -0.16797,-16.86524 1.46289,0 -0.0254,-3.37305 -4.86523,-6.02734 -0.10156,-9.48633 -4.04297,-47.06836 -5.24024,47.16992 -0.12304,9.38477 -4.58594,5.91406 -0.14844,3.65235 1.62695,0.0625 -0.0254,16.6875 c 0,0 -3.08937,-0.064 -4.54492,0.375 -1.97593,0.59592 -4.02415,1.46964 -5.42383,2.98632 -1.11546,1.2087 -2.02539,4.5 -2.02539,4.5 l 0.13672,19.57227 -3.16406,0 0.0566,43.86328 -6.58984,5.74024 0,14.65039 -49.81446,13.96289 0,-46.02344 -19.30664,-0.86133 0,-6.20508 -18.61523,0 0,7.06641 -11.89258,-0.17187 -21.54688,36.36914 0,18.78906 -23.95898,0.34375 -0.3457,-73.77344 -12.41016,0.17188 -9.48047,6.55078 0.51758,67.91406 -98.939453,27.40625 -0.173828,34.47266 1067.173741,-0.95899 0.6094,-33.27344 -87.51108,-30.24114 -20.917,-0.58725 -0.6559,-53.15012 2.4375,-1.76563 -0.123,-2.56054 -4.63085,-0.1211 0,-9.93359 9.99415,-2.92578 0,-2.80274 -33.51368,-0.20898 -1.14844,-7.37695 -1.47851,-4.90821 -1.47852,0.004 -1.41211,4.50781 -2.10156,-0.0625 -2.53125,-5.48242 -2.96094,-4.01758 -2.1875,-0.0547 -2.61328,3.96485 -2.85351,5.86914 -2.32032,0.0156 -1.54492,-4.55273 -1.49023,0.043 -1.51953,4.50195 -1.52149,7.95117 -32.75977,-0.0723 0,2.19336 9.50782,3.29101 0.30468,10.23828 -3.4746,0 0.004,2.54883 1.66797,1.63672 0.2793,23.72656 -32.17774,0 -39.54687,-19.09179 0.22265,-61.77735 1.88868,-0.0859 c 0,0 0.17847,-2.49461 -0.24024,-3.52929 -0.48646,-1.20211 -1.09281,-2.19692 -1.99219,-2.98633 -1.15624,-1.01485 -4.13867,-2.04297 -4.13867,-2.04297 l 0.0215,-2.63086 5.94531,-2.14258 c 0,0 0.65958,-6.15668 -0.55273,-8.85351 -1.31034,-2.91484 -4.0939,-5.0393 -6.76172,-6.79883 -2.57384,-1.69755 -8.59571,-3.41211 -8.59571,-3.41211 l -0.0312,-4.75391 -1.52343,-0.0312 -0.0312,-8.1914 2.07617,0 -0.0937,-9.10352 -2.71485,-3.4414 -2.25195,-0.0449 -1.95117,-30.62304 -2.40625,30.65429 -2.5,0.0918 -2.82422,3.24805 0,9.11523 1.88086,0.043 0,8.2832 -1.85938,0.0312 -0.0254,4.90039 c 0,0 -6.18495,1.45074 -8.7207,3.23438 -2.36272,1.66194 -4.39677,3.99459 -5.58203,6.62891 -1.21917,2.70976 -1.29297,8.81836 -1.29297,8.81836 1.50144,0.61579 4.383,1.48999 5.87891,2.11914 l 0.0488,2.60546 c 0,0 -3.07478,0.73954 -4.29296,1.67579 -1.15813,0.89009 -2.27584,2.32804 -2.58985,3.53515 -0.29757,1.14395 -0.14648,3.73828 -0.14648,3.73828 l 1.31055,0.0293 0.10937,82.79297 -26.89063,0 0.34571,-12.41211 -40.33594,-55.1582 -125.48437,0.23632 -0.0859,-32.61328 -2.32617,-0.0586 -0.0352,-31.95703 -2.23633,-0.20899 0.0605,-16.85547 2.5,0 c 0.0314,-2.53154 0.2511,-4.36911 -0.22461,-6.47656 -0.77936,-3.45269 -2.0385,-6.95954 -4.22852,-9.74023 -1.91439,-2.43072 -4.50767,-4.51798 -7.41015,-5.58985 -2.06848,-0.76388 -6.60352,-0.40625 -6.60352,-0.40625 l -0.0606,-4.63085 c 0,0 1.74562,-0.55341 2.16407,-1.2793 0.5479,-0.95039 0.50901,-2.30447 0.0293,-3.29102 -0.41488,-0.85321 -1.35579,-1.43054 -2.2539,-1.73633 -0.80765,-0.27499 -1.75574,-0.28321 -2.56055,0 -0.74965,0.2638 -1.52007,0.77263 -1.85742,1.49219 -0.50026,1.06694 -0.5215,2.51057 0.0606,3.53516 0.41906,0.73767 2.16406,1.33984 2.16406,1.33984 l 0,4.38867 c 0,0 -6.06091,-0.33064 -8.77539,0.79102 -2.86983,1.18586 -5.35282,3.43481 -7.16406,5.95703 -1.97244,2.74667 -2.96273,6.15243 -3.65235,9.46289 -0.40828,1.95988 -0.25586,6 -0.25586,6 l 2.29492,0.0625 -0.0859,17.1543 -1.79688,0.12109 0,31.875 -1.65039,0.1211 -0.16797,23.9375 -3.00195,-0.10938 0.12305,-7.49805 -1.25586,-0.0644 0.0176,-19.18164 -1.27343,-0.0488 0.12109,-31.58398 -1.42773,-0.0859 -0.14649,-17.60352 2.01758,0.01 c 0,0 0.0119,-6.44395 -0.01,-10.49609 -0.008,-1.43504 -0.96443,-4.39301 -2.15235,-6.24805 -1.24955,-1.95129 -3.06871,-3.56249 -5.02344,-4.80664 -1.62367,-1.03344 -3.50846,-1.65266 -5.38281,-2.08984 -1.81377,-0.42303 -5.56445,-0.49024 -5.56445,-0.49024 l -0.0312,-4.50976 c 0,0 1.14218,-0.86304 1.40234,-1.49415 0.27495,-0.66698 0.22824,-1.46044 0.0605,-2.16211 -0.18804,-0.78683 -0.46117,-1.72218 -1.1582,-2.13281 -0.50322,-0.29645 -1.12764,-0.43749 -1.75196,-0.42969 z m 282.29102,57.29883 2.80078,0.043 1.59375,2.11133 0.043,7.54102 -6.37695,-0.0859 0.17187,-8.1875 z m -490.26953,31.25196 -0.0312,9.93359 -5.21489,-0.0607 0,-9.8418 z m 2.31445,0.0605 4.77042,0 0,9.8418 -4.79972,-0.0293 z m 625.38867,87.91407 c 1.71967,0.53968 4.4043,3.13671 4.4043,3.13671 l -0.16797,28.55079 -16.77539,-0.084 -0.0859,-28.55273 c 0,0 2.83596,-2.44027 4.57617,-2.96485 2.5689,-0.77438 5.48881,-0.88931 8.04879,-0.0859 z m 21.0957,9.74414 c 1.84133,0.44986 4.99866,2.71093 4.99866,2.71093 l 0.0859,18.89453 -14.8274,0 0.084,-18.30078 c 0,0 3.04287,-2.64393 4.91467,-3.2207 1.51151,-0.46575 3.20772,-0.45935 4.74417,-0.084 z m -49.90234,0.0859 c 1.4366,-0.51167 3.14251,-0.44118 4.57422,0.084 2.05416,0.75351 5.08413,4.15187 5.08413,4.15187 l 0.16992,17.45312 -14.3185,-0.0854 -0.33985,0.0859 -0.16992,-17.45508 c 0,0 2.94257,-3.50158 5,-4.23436 z"
       style="fill:#404040;fill-opacity:1;fill-rule:evenodd;stroke:#404040;stroke-width:1px;stroke-linecap:butt;stroke-linejoin:miter;stroke-opacity:1" />
  </g>
</svg>
